<?xml version="1.0" encoding="utf-8"?>
<!-- Generator: Adobe Illustrator 26.0.0, SVG Export Plug-In . SVG Version: 6.00 Build 0)  -->
<svg version="1.1" id="Capa_1" xmlns="http://www.w3.org/2000/svg" xmlns:xlink="http://www.w3.org/1999/xlink" x="0px" y="0px"
	 viewBox="0 0 150 150" style="enable-background:new 0 0 150 150;" xml:space="preserve">
<style type="text/css">
	.st0{fill-rule:evenodd;clip-rule:evenodd;fill:#010202;}
	.st1{fill-rule:evenodd;clip-rule:evenodd;fill:#FFFFFF;}
</style>
<g>
	<path class="st0" d="M14.24,0.2h122.13c7.68,0,13.94,6.26,13.94,13.94v122.13c0,7.68-6.26,13.94-13.94,13.94H14.24
		c-7.68,0-13.94-6.26-13.94-13.94V14.13C0.3,6.46,6.56,0.2,14.24,0.2L14.24,0.2z"/>
	<path class="st1" d="M45.3,67.64c12.28,0,22.2,10.16,22.2,22.68c0,12.64-9.92,22.8-22.2,22.8c-14.65,0-23.39-14.88-23.39-31.42
		c0-26.69,10.28-46.65,34.37-44.17c4.02,0.35,6.97,4.02,6.5,8.03c-0.35,4.02-3.9,6.85-7.91,6.5c-10.51-1.06-14.88,7.32-16.54,16.65
		C40.58,67.99,42.94,67.64,45.3,67.64L45.3,67.64z"/>
	<path class="st1" d="M106.48,67.64c12.28,0,22.2,10.16,22.2,22.68c0,12.64-9.92,22.8-22.2,22.8c-14.65,0-23.39-14.88-23.39-31.42
		c0-26.69,10.16-46.65,34.37-44.17c4.02,0.35,6.85,4.02,6.5,8.03c-0.35,4.02-4.02,6.85-8.03,6.5c-10.39-1.06-14.76,7.32-16.54,16.65
		C101.64,67.99,104,67.64,106.48,67.64L106.48,67.64z"/>
</g>
</svg>
